<?xml version="1.0" encoding="UTF-8" standalone="no"?>
<svg width="48px" height="48px" viewBox="0 0 48 48" version="1.1" xmlns="http://www.w3.org/2000/svg" xmlns:xlink="http://www.w3.org/1999/xlink">
    <!-- Generator: Sketch 47.1 (45422) - http://www.bohemiancoding.com/sketch -->
    <title>添加图片</title>
    <desc>Created with Sketch.</desc>
    <defs></defs>
    <g id="Symbols" stroke="none" stroke-width="1" fill="none" fill-rule="evenodd">
        <g id="icon-添加图片" fill="#CCCCCC">
            <path d="M43.4403172,13.7771477 L40.3294684,13.7771477 L40.3294684,16.8877915 C40.3294684,17.7461794 39.6326112,18.4431903 38.7742233,18.4431903 C37.9156305,18.4431903 37.2188246,17.7461794 37.2188246,16.8877915 L37.2188246,13.7771477 L34.1079757,13.7771477 C33.2493829,13.7771477 32.5527307,13.0800855 32.5527307,12.2214927 C32.5527307,11.3628998 33.2493829,10.6662476 34.1079757,10.6662476 L37.2188246,10.6662476 L37.2188246,7.55539879 C37.2188246,6.69680595 37.9156305,6 38.7742233,6 C39.6326112,6 40.3294684,6.69680595 40.3294684,7.55539879 L40.3294684,10.6662476 L43.4403172,10.6662476 C44.2989101,10.6662476 44.9957672,11.3628998 44.9957672,12.2214927 C44.9957672,13.0800855 44.2989101,13.7771477 43.4403172,13.7771477 Z M34.1079757,19.2207103 C34.1079757,20.5084971 33.0627924,21.5538854 31.7748007,21.5538854 C30.4870139,21.5538854 29.4418819,20.5084971 29.4418819,19.2207103 C29.4418819,17.9329236 30.4870139,16.8877915 31.7748007,16.8877915 C33.0627924,16.8877915 34.1079757,17.9329236 34.1079757,19.2207103 Z M27.8864318,13.7771477 L6.11084882,13.7771477 L6.11084882,35.4544389 C6.1138724,35.4436258 9.51559939,20.1928153 15.3453085,20.1928153 C19.1854538,20.1928153 23.0910417,31.9874232 25.5254809,35.5525257 C25.5254809,35.5525257 27.433818,27.8253951 30.7266451,27.775583 C33.9836504,27.7271033 35.6633745,35.4544389 35.6633745,35.4544389 L37.2188246,35.4544389 L37.2188246,26.220133 C37.2188246,25.3615401 37.9156305,24.6647342 38.7742233,24.6647342 C39.6326112,24.6647342 40.3294684,25.3615401 40.3294684,26.220133 L40.3294684,38.6633745 C40.3294684,40.3819439 38.935959,41.7742233 37.2188246,41.7742233 L6.11084882,41.7742233 C4.39207448,41.7742233 3,40.3819439 3,38.6633745 L3,13.7771477 C3,12.0581683 4.39207448,10.6662476 6.11084882,10.6662476 L27.8864318,10.6662476 C28.7450247,10.6662476 29.4418819,11.3628998 29.4418819,12.2214927 C29.4418819,13.0800855 28.7450247,13.7771477 27.8864318,13.7771477 Z"></path>
        </g>
    </g>
</svg>